<?xml version="1.0" encoding="UTF-8"?>
<!DOCTYPE svg PUBLIC "-//W3C//DTD SVG 1.1//EN" "http://www.w3.org/Graphics/SVG/1.1/DTD/svg11.dtd">
<svg xmlns="http://www.w3.org/2000/svg" version="1.1" width="200px" height="100px" style="shape-rendering:geometricPrecision; text-rendering:geometricPrecision; image-rendering:optimizeQuality; fill-rule:evenodd; clip-rule:evenodd" xmlns:xlink="http://www.w3.org/1999/xlink">
<g><path style="opacity:1" fill="#9043fa" d="M 53.5,13.5 C 54.6162,16.2448 55.6162,19.0782 56.5,22C 55.3332,29.6681 55.3332,37.1681 56.5,44.5C 55.1738,45.6422 54.1738,46.9755 53.5,48.5C 50.8333,48.5 48.1667,48.5 45.5,48.5C 45.6567,47.1266 45.49,45.7932 45,44.5C 44.5357,45.0944 44.369,45.7611 44.5,46.5C 43.1667,45.1667 43.1667,43.8333 44.5,42.5C 45.33,33.0087 45.83,23.342 46,13.5C 48.6047,12.1857 51.1047,12.1857 53.5,13.5 Z"/></g>
<g><path style="opacity:1" fill="#8f42f8" d="M 53.5,13.5 C 55.7925,13.2436 57.9592,13.5769 60,14.5C 60.4999,25.8284 60.6665,37.1618 60.5,48.5C 58.1667,48.5 55.8333,48.5 53.5,48.5C 54.1738,46.9755 55.1738,45.6422 56.5,44.5C 55.3332,37.1681 55.3332,29.6681 56.5,22C 55.6162,19.0782 54.6162,16.2448 53.5,13.5 Z"/></g>
<g><path style="opacity:1" fill="#9043fa" d="M 106.5,13.5 C 106.5,25.1667 106.5,36.8333 106.5,48.5C 101.833,48.5 97.1667,48.5 92.5,48.5C 92.5,37.1667 92.5,25.8333 92.5,14.5C 92.6107,13.8826 92.944,13.3826 93.5,13C 97.9196,12.2316 102.253,12.3982 106.5,13.5 Z"/></g>
<g><path style="opacity:0.867" fill="#864ada" d="M 68.5,5.5 C 74.5,5.5 80.5,5.5 86.5,5.5C 85.6802,23.5235 85.3469,41.5235 85.5,59.5C 79.31,59.8229 73.31,59.4896 67.5,58.5C 67.17,40.992 67.5033,23.6586 68.5,6.5C 68.5,6.16667 68.5,5.83333 68.5,5.5 Z"/></g>
<g><path style="opacity:1" fill="#9143f9" d="M 68.5,6.5 C 68.8333,6.5 69.1667,6.5 69.5,6.5C 69.3433,7.87344 69.51,9.20677 70,10.5C 72.3617,11.3524 74.1951,12.8524 75.5,15C 73.8553,23.0582 72.522,31.2249 71.5,39.5C 70.7698,44.3139 72.1031,48.3139 75.5,51.5C 75.1193,52.9311 74.1193,53.7645 72.5,54C 74.4386,54.9078 75.4386,56.4078 75.5,58.5C 73.2075,58.7564 71.0408,58.4231 69,57.5C 68.5001,40.5033 68.3334,23.5033 68.5,6.5 Z"/></g>
<g><path style="opacity:1" fill="#9042fb" d="M 69.5,6.5 C 74.1667,6.5 78.8333,6.5 83.5,6.5C 82.3915,7.28997 81.0581,7.78997 79.5,8C 80.5,8.83333 81.5,9.66667 82.5,10.5C 80.0905,11.7007 78.0905,13.3674 76.5,15.5C 77.2826,20.4473 77.7826,25.4473 78,30.5C 78.036,32.9412 78.8693,34.9412 80.5,36.5C 80.8333,35.5 81.1667,34.5 81.5,33.5C 79.6364,27.9546 79.1364,22.2879 80,16.5C 80.7096,15.0267 81.8762,14.3601 83.5,14.5C 83.8514,25.2594 83.1848,35.9261 81.5,46.5C 80.1667,46.5 78.8333,46.5 77.5,46.5C 77.5,47.5 77.5,48.5 77.5,49.5C 79.6607,49.1742 81.4941,48.1742 83,46.5C 83.7494,47.635 83.5827,48.635 82.5,49.5C 80.4775,51.1733 78.1441,51.8399 75.5,51.5C 72.1031,48.3139 70.7698,44.3139 71.5,39.5C 72.522,31.2249 73.8553,23.0582 75.5,15C 74.1951,12.8524 72.3617,11.3524 70,10.5C 69.51,9.20677 69.3433,7.87344 69.5,6.5 Z"/></g>
<g><path style="opacity:1" fill="#9043f8" d="M 140.5,11.5 C 143.273,12.6572 146.273,13.3239 149.5,13.5C 148.855,14.8118 147.855,15.8118 146.5,16.5C 145.192,27.2277 145.192,37.8943 146.5,48.5C 143.833,48.5 141.167,48.5 138.5,48.5C 138.207,36.4498 138.541,24.4498 139.5,12.5C 139.5,11.8333 139.833,11.5 140.5,11.5 Z"/></g>
<g><path style="opacity:0.57" fill="#8d56d6" d="M 44.5,46.5 C 44.369,45.7611 44.5357,45.0944 45,44.5C 45.49,45.7932 45.6567,47.1266 45.5,48.5C 48.1667,48.5 50.8333,48.5 53.5,48.5C 55.8333,48.5 58.1667,48.5 60.5,48.5C 60.6665,37.1618 60.4999,25.8284 60,14.5C 57.9592,13.5769 55.7925,13.2436 53.5,13.5C 51.1047,12.1857 48.6047,12.1857 46,13.5C 45.83,23.342 45.33,33.0087 44.5,42.5C 44.3335,32.4944 44.5002,22.4944 45,12.5C 49.7477,11.3651 54.581,11.1985 59.5,12C 60,12.5 60.5,13 61,13.5C 61.4999,25.4954 61.6665,37.4954 61.5,49.5C 56.5374,50.4964 51.5374,50.6631 46.5,50C 45.0267,49.2904 44.3601,48.1238 44.5,46.5 Z"/></g>
<g><path style="opacity:1" fill="#8f44f5" d="M 38.5,22.5 C 39.8333,28.1667 39.8333,33.8333 38.5,39.5C 33.1667,39.5 27.8333,39.5 22.5,39.5C 22.5,33.8333 22.5,28.1667 22.5,22.5C 27.8333,22.5 33.1667,22.5 38.5,22.5 Z"/></g>
<g><path style="opacity:0.208" fill="#8258c4" d="M 107.5,13.5 C 107.167,13.5 106.833,13.5 106.5,13.5C 102.253,12.3982 97.9196,12.2316 93.5,13C 92.944,13.3826 92.6107,13.8826 92.5,14.5C 91.5051,25.988 91.1717,37.6547 91.5,49.5C 90.3403,37.6738 90.1737,25.6738 91,13.5C 91.5,13 92,12.5 92.5,12C 97.1667,11.3333 101.833,11.3333 106.5,12C 107.056,12.3826 107.389,12.8826 107.5,13.5 Z"/></g>
<g><path style="opacity:1" fill="#8f45f6" d="M 170.5,21.5 C 172.218,22.224 174.052,22.8906 176,23.5C 176.499,28.4889 176.666,33.4889 176.5,38.5C 171.167,38.5 165.833,38.5 160.5,38.5C 160.5,33.1667 160.5,27.8333 160.5,22.5C 162.117,21.0277 164.117,20.361 166.5,20.5C 168.045,20.5108 169.378,20.8442 170.5,21.5 Z"/></g>
<g><path style="opacity:1" fill="#9144f8" d="M 83.5,6.5 C 84.4967,23.6586 84.83,40.992 84.5,58.5C 81.5,58.5 78.5,58.5 75.5,58.5C 75.4386,56.4078 74.4386,54.9078 72.5,54C 74.1193,53.7645 75.1193,52.9311 75.5,51.5C 78.1441,51.8399 80.4775,51.1733 82.5,49.5C 83.5827,48.635 83.7494,47.635 83,46.5C 81.4941,48.1742 79.6607,49.1742 77.5,49.5C 77.5,48.5 77.5,47.5 77.5,46.5C 78.8333,46.5 80.1667,46.5 81.5,46.5C 83.1848,35.9261 83.8514,25.2594 83.5,14.5C 81.8762,14.3601 80.7096,15.0267 80,16.5C 79.1364,22.2879 79.6364,27.9546 81.5,33.5C 81.1667,34.5 80.8333,35.5 80.5,36.5C 78.8693,34.9412 78.036,32.9412 78,30.5C 77.7826,25.4473 77.2826,20.4473 76.5,15.5C 78.0905,13.3674 80.0905,11.7007 82.5,10.5C 81.5,9.66667 80.5,8.83333 79.5,8C 81.0581,7.78997 82.3915,7.28997 83.5,6.5 Z"/></g>
<g><path style="opacity:0.65" fill="#8e5dd9" d="M 38.5,22.5 C 33.1667,22.5 27.8333,22.5 22.5,22.5C 22.5,28.1667 22.5,33.8333 22.5,39.5C 27.8333,39.5 33.1667,39.5 38.5,39.5C 36.7165,40.455 34.7165,41.1217 32.5,41.5C 28.8822,40.6536 25.2155,40.3203 21.5,40.5C 21.5,34.1667 21.5,27.8333 21.5,21.5C 27.358,21.1778 33.0247,21.5111 38.5,22.5 Z"/></g>
<g><path style="opacity:0.075" fill="#855cc7" d="M 68.5,5.5 C 68.5,5.83333 68.5,6.16667 68.5,6.5C 67.5033,23.6586 67.17,40.992 67.5,58.5C 66.8335,49.8398 66.5002,41.0064 66.5,32C 66.5018,22.8071 67.1685,13.9738 68.5,5.5 Z"/></g>
<g><path style="opacity:1" fill="#8751d8" d="M 170.5,21.5 C 172.792,21.2436 174.959,21.5769 177,22.5C 177.667,28.1667 177.667,33.8333 177,39.5C 172.532,40.1935 168.032,40.8602 163.5,41.5C 162.252,40.9598 161.085,40.2931 160,39.5C 159.182,33.6513 159.348,27.9846 160.5,22.5C 160.5,27.8333 160.5,33.1667 160.5,38.5C 165.833,38.5 171.167,38.5 176.5,38.5C 176.666,33.4889 176.499,28.4889 176,23.5C 174.052,22.8906 172.218,22.224 170.5,21.5 Z"/></g>
<g><path style="opacity:0.851" fill="#8857d3" d="M 113.5,58.5 C 112.503,41.0079 112.17,23.3412 112.5,5.5C 118.833,5.5 125.167,5.5 131.5,5.5C 131.5,23.5 131.5,41.5 131.5,59.5C 125.31,59.8229 119.31,59.4896 113.5,58.5 Z"/></g>
<g><path style="opacity:1" fill="#8f43f6" d="M 114.5,6.5 C 114.334,13.5079 114.5,20.5079 115,27.5C 115.175,23.789 115.675,20.1224 116.5,16.5C 117.332,26.8173 117.832,37.1506 118,47.5C 119.074,48.6184 120.24,49.6184 121.5,50.5C 119.276,51.7801 117.276,51.4468 115.5,49.5C 114.52,52.0865 114.187,54.7531 114.5,57.5C 115.833,57.5 117.167,57.5 118.5,57.5C 118.5,56.1667 118.5,54.8333 118.5,53.5C 120.604,53.7989 122.604,53.4656 124.5,52.5C 123.779,40.7005 123.279,28.7005 123,16.5C 122.682,14.9391 121.849,13.7724 120.5,13C 121.167,12 121.833,11 122.5,10C 121.316,8.85453 121.316,7.68787 122.5,6.5C 125.167,6.5 127.833,6.5 130.5,6.5C 130.5,23.8333 130.5,41.1667 130.5,58.5C 124.833,58.5 119.167,58.5 113.5,58.5C 113.17,40.992 113.503,23.6586 114.5,6.5 Z"/></g>
<g><path style="opacity:1" fill="#9142fb" d="M 114.5,6.5 C 117.167,6.5 119.833,6.5 122.5,6.5C 121.316,7.68787 121.316,8.85453 122.5,10C 121.833,11 121.167,12 120.5,13C 121.849,13.7724 122.682,14.9391 123,16.5C 123.279,28.7005 123.779,40.7005 124.5,52.5C 122.604,53.4656 120.604,53.7989 118.5,53.5C 118.5,54.8333 118.5,56.1667 118.5,57.5C 117.167,57.5 115.833,57.5 114.5,57.5C 114.187,54.7531 114.52,52.0865 115.5,49.5C 117.276,51.4468 119.276,51.7801 121.5,50.5C 120.24,49.6184 119.074,48.6184 118,47.5C 117.832,37.1506 117.332,26.8173 116.5,16.5C 115.675,20.1224 115.175,23.789 115,27.5C 114.5,20.5079 114.334,13.5079 114.5,6.5 Z"/></g>
<g><path style="opacity:0.957" fill="#8952dd" d="M 106.5,13.5 C 106.833,13.5 107.167,13.5 107.5,13.5C 108.66,25.3262 108.826,37.3262 108,49.5C 102.401,50.8248 96.9008,50.8248 91.5,49.5C 91.1717,37.6547 91.5051,25.988 92.5,14.5C 92.5,25.8333 92.5,37.1667 92.5,48.5C 97.1667,48.5 101.833,48.5 106.5,48.5C 106.5,36.8333 106.5,25.1667 106.5,13.5 Z"/></g>
<g><path style="opacity:0.907" fill="#8853d8" d="M 140.5,11.5 C 144.514,11.3345 148.514,11.5012 152.5,12C 153,12.5 153.5,13 154,13.5C 154.833,25.5139 154.666,37.5139 153.5,49.5C 148.5,50.8333 143.5,50.8333 138.5,49.5C 137.334,37.5139 137.167,25.5139 138,13.5C 138.383,12.944 138.883,12.6107 139.5,12.5C 138.541,24.4498 138.207,36.4498 138.5,48.5C 141.167,48.5 143.833,48.5 146.5,48.5C 148.5,48.5 150.5,48.5 152.5,48.5C 152.5,36.8333 152.5,25.1667 152.5,13.5C 151.5,13.5 150.5,13.5 149.5,13.5C 146.273,13.3239 143.273,12.6572 140.5,11.5 Z"/></g>
<g><path style="opacity:1" fill="#9042fb" d="M 149.5,13.5 C 150.5,13.5 151.5,13.5 152.5,13.5C 152.5,25.1667 152.5,36.8333 152.5,48.5C 150.5,48.5 148.5,48.5 146.5,48.5C 145.192,37.8943 145.192,27.2277 146.5,16.5C 147.855,15.8118 148.855,14.8118 149.5,13.5 Z"/></g>
<g><path style="opacity:0.942" fill="#131313" d="M 91.5,71.5 C 95.9511,70.0177 99.1177,71.6843 101,76.5C 102.62,74.7585 104.12,72.9252 105.5,71C 107.259,70.2025 108.926,70.3691 110.5,71.5C 106.278,75.3435 103.945,80.0101 103.5,85.5C 102.167,85.5 100.833,85.5 99.5,85.5C 98.9156,79.6669 96.249,75.0002 91.5,71.5 Z"/></g>
<g><path style="opacity:0.524" fill="#101211" d="M 21.5,70.5 C 25.5138,70.3345 29.5138,70.5012 33.5,71C 37.0846,73.5281 37.418,76.5281 34.5,80C 31.5184,80.498 28.5184,80.6646 25.5,80.5C 25.5,82.1667 25.5,83.8333 25.5,85.5C 24.1667,85.5 22.8333,85.5 21.5,85.5C 21.5,80.5 21.5,75.5 21.5,70.5 Z M 25.5,74.5 C 27.924,74.1924 30.2573,74.5258 32.5,75.5C 30.4902,77.1713 28.1569,77.838 25.5,77.5C 25.5,76.5 25.5,75.5 25.5,74.5 Z"/></g>
<g><path style="opacity:0.016" fill="#7653bf" d="M 177.5,81.5 C 176.795,78.7719 176.128,75.9386 175.5,73C 175.167,72.8333 174.833,72.6667 174.5,72.5C 173.167,76.5 173.167,80.5 174.5,84.5C 175.213,82.565 176.213,82.2317 177.5,83.5C 176.365,85.2132 174.698,85.8799 172.5,85.5C 172.5,80.5 172.5,75.5 172.5,70.5C 174.144,70.2865 175.644,70.6198 177,71.5C 177.498,74.8168 177.665,78.1501 177.5,81.5 Z"/></g>
<g><path style="opacity:0.933" fill="#121312" d="M 62.5,70.5 C 64.288,70.2148 65.9547,70.5481 67.5,71.5C 70.0877,75.674 72.421,80.0074 74.5,84.5C 73.6667,84.8333 72.8333,85.1667 72,85.5C 67.3333,81.5 62.6667,81.5 58,85.5C 57.1667,85.1667 56.3333,84.8333 55.5,84.5C 58.3716,80.0901 60.7049,75.4235 62.5,70.5 Z M 64.5,75.5 C 65.8478,76.5268 66.3478,77.8602 66,79.5C 65.0805,79.0698 64.2472,78.7365 63.5,78.5C 64.1272,77.5832 64.4606,76.5832 64.5,75.5 Z"/></g>
<g><path style="opacity:0.431" fill="#121312" d="M 111.5,70.5 C 112.873,70.3433 114.207,70.51 115.5,71C 118.333,73.8333 121.167,76.6667 124,79.5C 124.498,76.5184 124.665,73.5184 124.5,70.5C 125.833,70.5 127.167,70.5 128.5,70.5C 128.5,75.5 128.5,80.5 128.5,85.5C 123.252,84.9529 119.252,82.2863 116.5,77.5C 116.448,79.5699 116.281,81.9032 116,84.5C 114.644,85.3802 113.144,85.7135 111.5,85.5C 111.5,80.5 111.5,75.5 111.5,70.5 Z"/></g>
<g><path style="opacity:1" fill="#141516" d="M 130.5,70.5 C 134.664,70.1429 137.831,71.8095 140,75.5C 141.5,74 143,72.5 144.5,71C 146.259,70.2025 147.926,70.3691 149.5,71.5C 147.5,73.8333 145.5,76.1667 143.5,78.5C 145.316,80.8169 147.316,82.9835 149.5,85C 147.833,85.6667 146.167,85.6667 144.5,85C 143.315,83.647 141.981,82.4803 140.5,81.5C 137.791,84.8675 134.457,85.8675 130.5,84.5C 132.833,82.8333 134.833,80.8333 136.5,78.5C 134.066,76.079 132.066,73.4123 130.5,70.5 Z"/></g>
<g><path style="opacity:0.998" fill="#101211" d="M 38.5,70.5 C 39.8333,70.5 41.1667,70.5 42.5,70.5C 42.5,72.5 42.5,74.5 42.5,76.5C 44.8333,76.5 47.1667,76.5 49.5,76.5C 48.4251,72.062 50.0917,70.062 54.5,70.5C 54.5,75.5 54.5,80.5 54.5,85.5C 50.5,86.1667 48.8333,84.5 49.5,80.5C 47.1667,80.5 44.8333,80.5 42.5,80.5C 42.5,82.1667 42.5,83.8333 42.5,85.5C 41.1667,85.5 39.8333,85.5 38.5,85.5C 38.5,80.5 38.5,75.5 38.5,70.5 Z"/></g>
<g><path style="opacity:0.945" fill="#101111" d="M 76.5,70.5 C 80.5138,70.3345 84.5138,70.5012 88.5,71C 92.4851,74.286 92.4851,77.6193 88.5,81C 92.7873,84.5109 92.1206,85.8443 86.5,85C 85.4678,82.1261 83.4678,80.6261 80.5,80.5C 80.5,82.1667 80.5,83.8333 80.5,85.5C 78.0516,85.9899 76.385,85.1566 75.5,83C 76.3354,78.7366 76.6687,74.57 76.5,70.5 Z M 80.5,74.5 C 89.6643,74.9588 89.6643,75.9588 80.5,77.5C 80.5,76.5 80.5,75.5 80.5,74.5 Z"/></g>
<g><path style="opacity:0.98" fill="#7b39ee" d="M 177.5,81.5 C 177.5,82.1667 177.5,82.8333 177.5,83.5C 176.213,82.2317 175.213,82.565 174.5,84.5C 173.167,80.5 173.167,76.5 174.5,72.5C 174.833,72.6667 175.167,72.8333 175.5,73C 176.128,75.9386 176.795,78.7719 177.5,81.5 Z"/></g>
<g><path style="opacity:0.929" fill="#7644d7" d="M 159.5,70.5 C 161.288,70.2148 162.955,70.5481 164.5,71.5C 166.579,75.9926 168.912,80.326 171.5,84.5C 169.034,85.8807 167.034,85.3807 165.5,83C 164.167,82.8333 162.833,82.6667 161.5,82.5C 158.74,82.7576 156.406,83.7576 154.5,85.5C 153.833,85.1667 153.167,84.8333 152.5,84.5C 155.372,80.0901 157.705,75.4235 159.5,70.5 Z M 161.5,75.5 C 164.377,77.8455 164.044,78.6789 160.5,78C 161.252,77.3292 161.586,76.4959 161.5,75.5 Z"/></g>
</svg>
